<?xml version="1.0" encoding="utf-8"?>
<!-- Generator: Adobe Illustrator 22.0.1, SVG Export Plug-In . SVG Version: 6.00 Build 0)  -->
<svg version="1.1" id="Layer_1" xmlns="http://www.w3.org/2000/svg" xmlns:xlink="http://www.w3.org/1999/xlink" x="0px" y="0px"
	 viewBox="0 0 595.3 517.9" style="enable-background:new 0 0 595.3 517.9;" xml:space="preserve">
<style type="text/css">
	.st0{fill:#CE7328;}
	.st1{fill:#00AA86;}
</style>
<g>
	<path class="st0" d="M463.3,258.4C463.3,258.4,463.3,258.4,463.3,258.4c0,0.1,0,0.2,0,0.3C463.3,258.6,463.3,258.5,463.3,258.4z"/>
	<path class="st0" d="M191.6,258.4C191.6,258.4,191.6,258.4,191.6,258.4c0,0.1,0,0.2,0,0.3C191.6,258.6,191.6,258.5,191.6,258.4z"/>
	<g>
		<path class="st1" d="M190.6,258.9C190.6,258.9,190.6,258.9,190.6,258.9c0,0.1,0,0.2,0,0.3C190.6,259.1,190.6,259,190.6,258.9z"/>
		<path class="st1" d="M289.5,88.8c63.2,0,118.4,34.6,147.8,85.8c5.3,0.8,10.5,2.1,15.8,3.9c7.6,2.6,14.7,6.1,20.9,10.5
			c1,0.7,1.8,1.4,2.3,1.8l0.2,0.2c2.1,1.6,4.1,3.3,6,5.1C456.1,114.8,379.5,55.9,289.5,55.9c-89.8,0-166.2,58.6-192.9,139.5
			c12.1-11,27.6-18.4,45.2-21C171.1,123.3,226.3,88.8,289.5,88.8z"/>
		<path class="st1" d="M289.5,429.1c-63.2,0-118.4-34.6-147.8-85.8c-17.1-2.6-32.8-9.9-45.3-21.4C123,403.1,199.5,462,289.5,462
			c89.8,0,166.2-58.6,192.9-139.5c-12.1,11-27.6,18.5-45.2,21C407.8,394.6,352.6,429.1,289.5,429.1z"/>
		<path class="st1" d="M492.5,258.7c0-7.1-1.3-13.7-3.1-20c-0.4-1.3-0.7-2.6-1.2-3.9c-2.1-6-4.9-11.6-8.4-16.5
			c-0.5-0.6-1-1.2-1.5-1.8c-3.5-4.6-7.6-8.6-12.2-12c-0.7-0.5-1.3-1.1-1.9-1.6c-5.1-3.5-10.7-6.3-16.7-8.4
			c-7.3-2.5-15.2-4.1-23.5-4.1c-38,0-68.9,28.2-68.9,68.4s30.9,68.5,68.9,68.5c38,0,68.5-28.3,68.5-68.5L492.5,258.7z M459.3,258.8
			C459.3,258.8,459.3,258.8,459.3,258.8c0,0.1,0,0.1,0,0.1C459.3,258.9,459.3,258.9,459.3,258.8c0,0.2,0,0.3,0,0.4
			c0-0.1,0-0.2,0-0.3c0,23.4-14,38.8-35.3,38.8c-21.8,0-35.5-15.4-35.5-38.8c0-23.8,13.7-38.8,35.5-38.8
			C445.4,220,459.3,235,459.3,258.8C459.3,258.8,459.3,258.8,459.3,258.8C459.3,258.8,459.3,258.8,459.3,258.8z"/>
		<path class="st1" d="M220.8,238.7c-0.4-1.3-0.7-2.6-1.2-3.9c-2.1-6-4.9-11.6-8.4-16.5c-0.5-0.6-1-1.2-1.5-1.8
			c-3.5-4.6-7.6-8.6-12.2-12c-0.7-0.5-1.3-1.1-1.9-1.6c-5.1-3.5-10.7-6.3-16.7-8.4c-7.3-2.5-15.2-4.1-23.5-4.1
			c-38,0-68.9,28.2-68.9,68.4s30.9,68.5,68.9,68.5c38,0,68.5-28.3,68.5-68.5c0,0,0-0.1,0-0.1c0,0,0-0.1,0-0.1
			C223.8,251.6,222.6,245,220.8,238.7z M190.6,258.8C190.6,258.8,190.6,258.8,190.6,258.8c0,0.1,0,0.1,0,0.1
			C190.6,258.9,190.6,258.9,190.6,258.8c0,0.2,0,0.3,0,0.4c0-0.1,0-0.2,0-0.3c0,23.4-14,38.8-35.3,38.8c-21.8,0-35.5-15.4-35.5-38.8
			c0-23.8,13.7-38.8,35.5-38.8C176.7,220,190.6,235,190.6,258.8C190.6,258.8,190.6,258.8,190.6,258.8
			C190.6,258.8,190.6,258.8,190.6,258.8z"/>
	</g>
</g>
</svg>
