<svg width="13" height="13" viewBox="0 0 13 13" fill="none" xmlns="http://www.w3.org/2000/svg">
<path d="M9 5.5C9 7.42969 7.42969 9 5.5 9C3.57031 9 2 7.42969 2 5.5C2 3.57031 3.57031 2 5.5 2C7.42969 2 9 3.57031 9 5.5ZM13 12C13 11.7344 12.8906 11.4766 12.7109 11.2969L10.0313 8.61719C10.6641 7.70312 11 6.60937 11 5.5C11 2.46094 8.53906 -5.96046e-07 5.5 -5.96046e-07C2.46094 -5.96046e-07 0 2.46094 0 5.5C0 8.53906 2.46094 11 5.5 11C6.60938 11 7.70313 10.6641 8.61719 10.0312L11.2969 12.7031C11.4766 12.8906 11.7344 13 12 13C12.5469 13 13 12.5469 13 12Z" fill="#01AB88"/>
</svg>
